<?xml version="1.0" encoding="UTF-8"?>
<svg xmlns="http://www.w3.org/2000/svg" width="1280" height="960" viewBox="0 0 1280 960">
<title>1302-131pms01.m1</title>
<rect width="100%" height="100%" fill="#000000"/>
<g id="graphics">
<path data-obj="2" d="M0 960L12.8 960L12.8 947.2L0 947.2Z" fill="#000000" stroke="#ffffff" stroke-width="1.06" stroke-linejoin="miter"/>
<path data-obj="4" d="M15.36 12.8L1269.76 12.8L1269.76 947.2L15.36 947.2Z" fill="#c0c0c0" fill-opacity="0.5" stroke="#5c5cff" stroke-width="1.06" stroke-linejoin="miter"/>
<text data-obj="5" x="25.79" y="47.36" font-family="Arial, Helvetica, sans-serif" font-size="32.8" text-anchor="start" dominant-baseline="auto" fill="#00bcff">Details Menu</text>
<g data-obj="6" class="placeholder"><path d="M16 284.34H24M20 280.34V288.34" stroke="#ff00ff" stroke-width="1"/><text x="25" y="273.34" font-family="Consolas, monospace" font-size="8" fill="#ff66ff">dupont_MenuPB</text><text x="25" y="282.34" font-family="Consolas, monospace" font-size="8" fill="#ff66ff">Water Treatment</text></g>
<g data-obj="7" class="placeholder"><path d="M16 130.74H24M20 126.74V134.74" stroke="#ff00ff" stroke-width="1"/><text x="25" y="119.74" font-family="Consolas, monospace" font-size="8" fill="#ff66ff">dupont_MenuPB</text><text x="25" y="128.74" font-family="Consolas, monospace" font-size="8" fill="#ff66ff">Multi Fuel Boiler</text></g>
<g data-obj="8" class="placeholder"><path d="M16 335.54H24M20 331.54V339.54" stroke="#ff00ff" stroke-width="1"/><text x="25" y="324.54" font-family="Consolas, monospace" font-size="8" fill="#ff66ff">dupont_MenuPB</text><text x="25" y="333.54" font-family="Consolas, monospace" font-size="8" fill="#ff66ff">Boiler Feed Water</text></g>
<g data-obj="9" class="placeholder"><path d="M16 233.14H24M20 229.14V237.14" stroke="#ff00ff" stroke-width="1"/><text x="25" y="222.14" font-family="Consolas, monospace" font-size="8" fill="#ff66ff">dupont_MenuPB</text><text x="25" y="231.14" font-family="Consolas, monospace" font-size="8" fill="#ff66ff">Effluent Treatment </text></g>
<g data-obj="10" class="placeholder"><path d="M16 181.94H24M20 177.94V185.94" stroke="#ff00ff" stroke-width="1"/><text x="25" y="170.94" font-family="Consolas, monospace" font-size="8" fill="#ff66ff">dupont_MenuPB</text><text x="25" y="179.94" font-family="Consolas, monospace" font-size="8" fill="#ff66ff">Turbine</text></g>
<path data-obj="11" d="M12.8 76.8L1267.2 76.8" fill="none" stroke="#ffffff" stroke-width="1.06" stroke-linejoin="miter"/>
<g data-obj="12" class="placeholder"><path d="M16 386.74H24M20 382.74V390.74" stroke="#ff00ff" stroke-width="1"/><text x="25" y="375.74" font-family="Consolas, monospace" font-size="8" fill="#ff66ff">dupont_MenuPB</text><text x="25" y="384.74" font-family="Consolas, monospace" font-size="8" fill="#ff66ff">Recovery Boiler</text></g>
<g data-obj="13" class="placeholder"><path d="M16 437.94H24M20 433.94V441.94" stroke="#ff00ff" stroke-width="1"/><text x="25" y="426.94" font-family="Consolas, monospace" font-size="8" fill="#ff66ff">dupont_MenuPB</text><text x="25" y="435.94" font-family="Consolas, monospace" font-size="8" fill="#ff66ff">Evaporator</text></g>
<g data-obj="14" class="placeholder"><path d="M16 489.14H24M20 485.14V493.14" stroke="#ff00ff" stroke-width="1"/><text x="25" y="478.14" font-family="Consolas, monospace" font-size="8" fill="#ff66ff">dupont_MenuPB</text><text x="25" y="487.14" font-family="Consolas, monospace" font-size="8" fill="#ff66ff">Recaustizicing / Lime Kiln</text></g>
<g data-obj="15" class="placeholder"><path d="M16 540.34H24M20 536.34V544.34" stroke="#ff00ff" stroke-width="1"/><text x="25" y="529.34" font-family="Consolas, monospace" font-size="8" fill="#ff66ff">dupont_MenuPB</text><text x="25" y="538.34" font-family="Consolas, monospace" font-size="8" fill="#ff66ff">Turbine # 1</text></g>
<g data-obj="16" class="placeholder"><path d="M454.13 66.74H462.13M458.13 62.74V70.74" stroke="#ff00ff" stroke-width="1"/><text x="463.13" y="55.74" font-family="Consolas, monospace" font-size="8" fill="#ff66ff">dupont_MenuPB</text><text x="463.13" y="64.74" font-family="Consolas, monospace" font-size="8" fill="#ff66ff">Overviews</text></g>
<g data-obj="17" class="placeholder"><path d="M607.73 66.74H615.73M611.73 62.74V70.74" stroke="#ff00ff" stroke-width="1"/><text x="616.73" y="55.74" font-family="Consolas, monospace" font-size="8" fill="#ff66ff">dupont_MenuPB</text><text x="616.73" y="64.74" font-family="Consolas, monospace" font-size="8" fill="#ff66ff">Details</text></g>
<g data-obj="18" class="placeholder"><path d="M761.33 66.74H769.33M765.33 62.74V70.74" stroke="#ff00ff" stroke-width="1"/><text x="770.33" y="55.74" font-family="Consolas, monospace" font-size="8" fill="#ff66ff">dupont_MenuPB</text><text x="770.33" y="64.74" font-family="Consolas, monospace" font-size="8" fill="#ff66ff">Interlocks</text></g>
<g data-obj="19" class="placeholder"><path d="M914.93 66.74H922.93M918.93 62.74V70.74" stroke="#ff00ff" stroke-width="1"/><text x="923.93" y="55.74" font-family="Consolas, monospace" font-size="8" fill="#ff66ff">dupont_MenuPB</text><text x="923.93" y="64.74" font-family="Consolas, monospace" font-size="8" fill="#ff66ff">Trends</text></g>
<g data-obj="20" class="placeholder"><path d="M1068.53 66.74H1076.53M1072.53 62.74V70.74" stroke="#ff00ff" stroke-width="1"/><text x="1077.53" y="55.74" font-family="Consolas, monospace" font-size="8" fill="#ff66ff">dupont_MenuPB</text><text x="1077.53" y="64.74" font-family="Consolas, monospace" font-size="8" fill="#ff66ff">Sequences</text></g>
<g data-obj="21" class="placeholder"><path d="M396 140.8H404M400 136.8V144.8" stroke="#ff00ff" stroke-width="1"/><text x="405" y="129.8" font-family="Consolas, monospace" font-size="8" fill="#ff66ff">dupont_MenuPB</text><text x="405" y="138.8" font-family="Consolas, monospace" font-size="8" fill="#ff66ff">PRIMARY CLARIFIER</text></g>
<path data-obj="22" d="M396.8 89.6L1254.4 89.6L1254.4 870.4L396.8 870.4Z" fill="none" stroke="#9e4c8d" stroke-width="4.23" stroke-linejoin="miter"/>
<path data-obj="113" d="M345.6 192L396.8 211.2L345.6 196.8L345.6 192Z" fill="#5ba550" stroke="#ffffff" stroke-width="1.06" stroke-linejoin="miter"/>
<path data-obj="114" d="M396.8 211.2L345.6 196.8L345.6 201.6L396.8 211.2Z" fill="#c28098" stroke="#c28098" stroke-width="1.06" stroke-linejoin="miter"/>
<path data-obj="115" d="M396.8 211.2L345.6 201.6L345.6 220.8L396.8 211.2Z" fill="#e48686" stroke="#ffffff" stroke-width="1.06" stroke-linejoin="miter"/>
<path data-obj="116" d="M396.8 211.2L345.6 220.8L345.6 225.6L396.8 211.2Z" fill="#6bb8b0" stroke="#ffffff" stroke-width="1.06" stroke-linejoin="miter"/>
<path data-obj="117" d="M396.8 211.2L345.6 225.6L345.6 230.4L396.8 211.2Z" fill="#bda575" stroke="#ffffff" stroke-width="1.06" stroke-linejoin="miter"/>
<path data-obj="118" d="M294.4 208L345.6 208L345.6 204.8L294.4 204.8Z" fill="#5ba550" stroke="#5ba550" stroke-width="1.06" stroke-linejoin="miter"/>
<path data-obj="119" d="M294.4 211.2L345.6 211.2L345.6 208L294.4 208Z" fill="#c28098" stroke="#5ba550" stroke-width="1.06" stroke-linejoin="miter"/>
<path data-obj="120" d="M294.4 214.4L345.6 214.4L345.6 211.2L294.4 211.2Z" fill="#e48686" stroke="#5ba550" stroke-width="1.06" stroke-linejoin="miter"/>
<path data-obj="121" d="M294.4 217.6L345.6 217.6L345.6 214.4L294.4 214.4Z" fill="#bbb572" stroke="#5ba550" stroke-width="1.06" stroke-linejoin="miter"/>
<g data-obj="25" class="placeholder"><path d="M396 179.2H404M400 175.2V183.2" stroke="#ff00ff" stroke-width="1"/><text x="405" y="168.2" font-family="Consolas, monospace" font-size="8" fill="#ff66ff">dupont_MenuPB</text><text x="405" y="177.2" font-family="Consolas, monospace" font-size="8" fill="#ff66ff">COOLING TOWER</text></g>
<g data-obj="26" class="placeholder"><path d="M396 217.6H404M400 213.6V221.6" stroke="#ff00ff" stroke-width="1"/><text x="405" y="206.6" font-family="Consolas, monospace" font-size="8" fill="#ff66ff">dupont_MenuPB</text><text x="405" y="215.6" font-family="Consolas, monospace" font-size="8" fill="#ff66ff">DEEP TANK EFFLUENT</text></g>
<g data-obj="27" class="placeholder"><path d="M396 256H404M400 252V260" stroke="#ff00ff" stroke-width="1"/><text x="405" y="245" font-family="Consolas, monospace" font-size="8" fill="#ff66ff">dupont_MenuPB</text><text x="405" y="254" font-family="Consolas, monospace" font-size="8" fill="#ff66ff">SECONDARY CLARIFIER</text></g>
<g data-obj="28" class="placeholder"><path d="M1106.67 937.14H1114.67M1110.67 933.14V941.14" stroke="#ff00ff" stroke-width="1"/><text x="1115.67" y="926.14" font-family="Consolas, monospace" font-size="8" fill="#ff66ff">dupont_MenuPB</text><text x="1115.67" y="935.14" font-family="Consolas, monospace" font-size="8" fill="#ff66ff">Page 1 of 1</text></g>
<g data-obj="29" class="placeholder"><path d="M15.2 592H23.2M19.2 588V596" stroke="#ff00ff" stroke-width="1"/><text x="24.2" y="581" font-family="Consolas, monospace" font-size="8" fill="#ff66ff">dupont_MenuPB</text><text x="24.2" y="590" font-family="Consolas, monospace" font-size="8" fill="#ff66ff">TPL Continuous Emissions Monitoring</text></g>
<g data-obj="30" class="placeholder"><path d="M396 294.4H404M400 290.4V298.4" stroke="#ff00ff" stroke-width="1"/><text x="405" y="283.4" font-family="Consolas, monospace" font-size="8" fill="#ff66ff">dupont_MenuPB</text><text x="405" y="292.4" font-family="Consolas, monospace" font-size="8" fill="#ff66ff">EFFLUENT CMS</text></g>
<g data-obj="31" class="placeholder"><path d="M396 332.8H404M400 328.8V336.8" stroke="#ff00ff" stroke-width="1"/><text x="405" y="321.8" font-family="Consolas, monospace" font-size="8" fill="#ff66ff">dupont_MenuPB</text><text x="405" y="330.8" font-family="Consolas, monospace" font-size="8" fill="#ff66ff">TPL MILL INFLUENT SYSTEM</text></g>
<g data-obj="32" class="placeholder"><path d="M19.04 640H27.04M23.04 636V644" stroke="#ff00ff" stroke-width="1"/><text x="28.04" y="629" font-family="Consolas, monospace" font-size="8" fill="#ff66ff">dupont_MenuPB</text><text x="28.04" y="638" font-family="Consolas, monospace" font-size="8" fill="#ff66ff">Temp.Turbine PCU Room</text></g>
</g>
</svg>
